<svg width="52" height="20" viewBox="0 0 52 20" fill="none" xmlns="http://www.w3.org/2000/svg">
<path d="M4.11208 19.7497V13.3417L0 1.85232H2.06807L5.09802 10.7134L8.58488 0H10.4846L6.01182 13.4168V19.7497H4.11208Z" fill="#FF3029"/>
<path d="M16.0877 16.8962C16.0877 17.4969 16.1118 18.0476 16.1599 18.5482C16.208 19.0489 16.2561 19.4494 16.3042 19.7497H14.717C14.685 19.6162 14.6529 19.4577 14.6208 19.2741C14.5888 19.0906 14.5647 18.9154 14.5487 18.7485H14.4285C14.1559 19.0989 13.8433 19.3826 13.4906 19.5995C13.1379 19.8165 12.6971 19.9249 12.168 19.9249C11.3023 19.9249 10.6009 19.5995 10.0639 18.9487C9.52683 18.2979 9.2583 17.3467 9.2583 16.0952C9.2583 15.4277 9.34647 14.8186 9.52282 14.2679C9.69917 13.7172 9.97571 13.2541 10.3525 12.8786C10.7292 12.5032 11.2141 12.2111 11.8073 12.0025C12.4005 11.794 13.1219 11.6897 13.9716 11.6897H14.2361V10.9387C14.2361 10.1043 14.1038 9.50359 13.8393 9.13646C13.5748 8.76933 13.178 8.58577 12.649 8.58577C12.168 8.58577 11.7272 8.69841 11.3264 8.9237C10.9256 9.14898 10.5649 9.40346 10.2442 9.68715L9.88353 7.95999C10.1561 7.72637 10.5528 7.50109 11.0739 7.28415C11.5949 7.06721 12.16 6.95874 12.7692 6.95874C13.2982 6.95874 13.7712 7.02549 14.188 7.15899C14.6048 7.29249 14.9535 7.5136 15.2341 7.82232C15.5146 8.13104 15.727 8.53988 15.8713 9.04885C16.0156 9.55782 16.0877 10.1961 16.0877 10.9637V16.8962ZM14.2361 13.1665H14.0197C13.4425 13.1665 12.9696 13.2291 12.6009 13.3542C12.2321 13.4794 11.9436 13.663 11.7352 13.9049C11.5268 14.1469 11.3825 14.4348 11.3023 14.7685C11.2222 15.1023 11.1821 15.4694 11.1821 15.8699C11.1821 16.6041 11.2983 17.1882 11.5308 17.6221C11.7632 18.0559 12.1199 18.2729 12.6009 18.2729C12.9215 18.2729 13.2301 18.1769 13.5267 17.985C13.8233 17.7931 14.0597 17.5553 14.2361 17.2716V13.1665Z" fill="#2B2B2B"/>
<path d="M20.2959 19.7497H18.4202V7.10893H20.2959V8.2103H20.4161C20.4962 8.09349 20.6125 7.95999 20.7648 7.8098C20.9171 7.65962 21.0974 7.52195 21.3058 7.39679C21.5143 7.27163 21.7427 7.16733 21.9912 7.0839C22.2397 7.00046 22.5082 6.95874 22.7968 6.95874C24.416 6.95874 25.2255 7.90992 25.2255 9.81231V19.7497H23.3258V9.98753C23.3258 9.50359 23.2296 9.16984 23.0372 8.98627C22.8449 8.80271 22.5643 8.71093 22.1956 8.71093C21.7948 8.71093 21.4341 8.84026 21.1135 9.09892C20.7928 9.35757 20.5203 9.64543 20.2959 9.9625V19.7497Z" fill="#2B2B2B"/>
<path d="M30.7564 19.9249C29.554 19.9249 28.6402 19.4159 28.015 18.398C27.3898 17.38 27.0771 15.8865 27.0771 13.9174C27.0771 11.5811 27.4579 9.83728 28.2194 8.68584C28.9809 7.53439 29.9708 6.95868 31.1892 6.95868C31.4778 6.95868 31.7624 7.00457 32.0429 7.09635C32.3235 7.18813 32.5519 7.30077 32.7283 7.43427V1.85229H34.6039V19.7497H33.2092L33.0649 18.7484H32.9447C32.6721 19.0989 32.3635 19.3825 32.0189 19.5995C31.6742 19.8164 31.2534 19.9249 30.7564 19.9249ZM32.7283 9.16143C32.5359 8.96118 32.3315 8.81099 32.1151 8.71087C31.8986 8.61074 31.6301 8.56068 31.3095 8.56068C30.9247 8.56068 30.5921 8.69835 30.3115 8.9737C30.031 9.24904 29.7985 9.61616 29.6141 10.0751C29.4298 10.534 29.2935 11.0596 29.2053 11.652C29.1172 12.2445 29.0731 12.8661 29.0731 13.5169C29.0731 15.0021 29.2174 16.166 29.5059 17.0087C29.7945 17.8515 30.2835 18.2728 30.9728 18.2728C31.4377 18.2728 31.8064 18.1727 32.079 17.9724C32.3515 17.7722 32.5679 17.5469 32.7283 17.2966V9.16143Z" fill="#2B2B2B"/>
<path d="M43.4294 18.8987C43.0446 19.2157 42.6158 19.466 42.1429 19.6496C41.6699 19.8332 41.1289 19.9249 40.5197 19.9249C39.2692 19.9249 38.2833 19.4202 37.5619 18.4106C36.8404 17.401 36.4797 15.92 36.4797 13.9675C36.4797 12.9496 36.5479 12.0151 36.6841 11.164C36.8204 10.3129 37.0368 9.57451 37.3334 8.94873C37.63 8.32294 38.0107 7.83484 38.4757 7.4844C38.9406 7.13396 39.4937 6.95874 40.1349 6.95874C40.6319 6.95874 41.0888 7.06304 41.5056 7.27163C41.9224 7.48023 42.2751 7.81815 42.5637 8.2854C42.8523 8.75265 43.0767 9.35757 43.237 10.1002C43.3973 10.8428 43.4775 11.7481 43.4775 12.8161V13.8924H38.4276C38.4276 15.3275 38.6159 16.4122 38.9927 17.1465C39.3694 17.8807 39.9345 18.2479 40.688 18.2479C41.2171 18.2479 41.6739 18.1519 42.0587 17.96C42.4435 17.7681 42.7561 17.5804 42.9965 17.3968L43.4294 18.8987ZM40.1349 8.56074C39.5578 8.56074 39.149 8.89866 38.9085 9.57451C38.668 10.2504 38.5157 11.1556 38.4516 12.2904H41.5537C41.5537 11.7564 41.5297 11.26 41.4816 10.801C41.4335 10.3421 41.3573 9.94581 41.2531 9.61206C41.1489 9.27831 41.0046 9.01965 40.8203 8.83609C40.6359 8.65252 40.4075 8.56074 40.1349 8.56074Z" fill="#2B2B2B"/>
<path d="M51.6296 7.13403L49.3691 13.0414L51.8941 19.7498H49.9463L48.0706 14.5433L46.243 19.7498H44.3914L46.9163 13.2166L44.6318 7.13403H46.5797L48.1427 11.7148L49.802 7.13403H51.6296Z" fill="#2B2B2B"/>
</svg>
