<svg width="133" height="24" viewBox="0 0 133 24" fill="none" xmlns="http://www.w3.org/2000/svg">
<path d="M6.40002 20V13.675L11.05 0.275024H9.07502L5.45002 10.975L2.30002 2.12502H0.150024L4.42502 13.6V20H6.40002Z" fill="#4D4D4D"/>
<path d="M14.9557 17.525C14.6057 18.075 13.9307 18.525 13.2557 18.525C12.2557 18.525 11.7807 17.575 11.7807 16.125C11.7807 14.5 12.3057 13.425 14.7307 13.425H14.9557V17.525ZM16.8807 17.15V11.225C16.8807 8.17502 15.6557 7.22502 13.4307 7.22502C12.1557 7.22502 11.0057 7.75002 10.4307 8.22502L10.8057 9.95003C11.4557 9.37503 12.3057 8.85003 13.3057 8.85003C14.4057 8.85003 14.9557 9.55002 14.9557 11.2V11.95H14.6807C11.1557 11.95 9.78069 13.65 9.78069 16.35C9.78069 18.825 11.0057 20.175 12.8057 20.175C13.9057 20.175 14.6057 19.7 15.1557 19H15.2807C15.3057 19.325 15.3807 19.725 15.4557 20H17.1057C17.0057 19.4 16.8807 18.35 16.8807 17.15ZM21.2557 10.225C21.7057 9.60003 22.4057 8.97503 23.2307 8.97503C23.9807 8.97503 24.4057 9.30002 24.4057 10.25V20H26.3807V10.075C26.3807 8.15002 25.5057 7.22502 23.8557 7.22502C22.6807 7.22502 21.7307 8.00003 21.3807 8.47503H21.2557V7.37503H19.3057V20H21.2557V10.225ZM32.1307 20.175C33.1557 20.175 33.8557 19.7 34.4057 19H34.5307L34.6807 20H36.1307V2.12502H34.1807V7.70003C33.8057 7.42502 33.1807 7.22502 32.5807 7.22502C30.0557 7.22502 28.3057 9.50003 28.3057 14.175C28.3057 18.075 29.6557 20.175 32.1307 20.175ZM34.1807 17.55C33.8557 18.05 33.3307 18.525 32.3557 18.525C30.9307 18.525 30.3807 16.725 30.3807 13.775C30.3807 11.2 31.1307 8.82502 32.7057 8.82502C33.3557 8.82502 33.7807 9.02503 34.1807 9.42502V17.55ZM45.3057 19.15L44.8557 17.65C44.3557 18 43.5557 18.5 42.4557 18.5C40.9057 18.5 40.1057 17 40.1057 14.15H45.3557V13.075C45.3557 8.80003 43.9807 7.22502 41.8807 7.22502C39.2057 7.22502 38.0807 10.175 38.0807 14.225C38.0807 18.1 39.6807 20.175 42.2807 20.175C43.5307 20.175 44.5057 19.775 45.3057 19.15ZM41.8807 8.82502C43.0057 8.82502 43.3557 10.4 43.3557 12.55H40.1307C40.2557 10.3 40.6807 8.82502 41.8807 8.82502ZM51.9307 7.40002L50.2057 11.975L48.5807 7.40002H46.5557L48.9307 13.475L46.3057 20H48.2307L50.1307 14.8L52.0807 20H54.1057L51.4807 13.3L53.8307 7.40002H51.9307Z" fill="#4D4D4D"/>
<path d="M66.5502 20H67.8002V2.12502H66.5502V10.375H61.0002V2.12502H59.7502V20H61.0002V11.4H66.5502V20Z" fill="#4D4D4D"/>
<path d="M71.1139 13.9H76.8139C77.2139 9.42502 75.8139 7.15003 73.6389 7.15003C71.5139 7.15003 69.9639 9.57503 69.9639 13.7C69.9639 17.825 71.1889 20.25 73.8639 20.25C75.8639 20.25 76.8139 18.825 76.8139 18.825L76.4389 17.875C76.4389 17.875 75.5639 19.225 73.8889 19.225C72.0639 19.225 71.1639 17.35 71.1139 13.9ZM73.6389 8.12502C74.9139 8.12502 75.9139 9.62502 75.7139 12.975H71.1389C71.2389 9.82503 72.3139 8.12502 73.6389 8.12502Z" fill="#4D4D4D"/>
<path d="M79.0617 2.12502V20H80.2367V2.12502H79.0617Z" fill="#4D4D4D"/>
<path d="M86.5651 19.3C85.4401 19.3 84.7401 18.8 84.2401 17.775V10.725C84.7901 9.37503 85.7401 8.17502 86.8651 8.17502C88.3151 8.17502 89.2151 10.125 89.2151 13.425C89.2151 17.4 88.1651 19.3 86.5651 19.3ZM86.4901 20.225C88.8401 20.225 90.3901 17.95 90.3901 13.325C90.3901 9.67503 89.1651 7.15003 87.0651 7.15003C85.6651 7.15003 84.7401 8.27502 84.1901 9.47502L84.0901 7.40002H83.0651V23.9H84.2401V19.125C84.7151 19.75 85.5401 20.225 86.4901 20.225Z" fill="#4D4D4D"/>
<path d="M96.1104 20.225C98.6104 20.225 99.9604 17.875 99.9604 13.25C99.9604 9.60003 98.7104 7.15003 96.6104 7.15003C95.2354 7.15003 94.3354 8.22502 93.8104 9.37502V2.12502H92.6354V20H93.5604L93.7104 18.7C94.1354 19.475 95.0604 20.225 96.1104 20.225ZM96.2104 19.3C95.0354 19.3 94.3104 18.625 93.8104 17.475V10.725C94.3604 9.37503 95.2854 8.17502 96.4104 8.17502C97.8604 8.17502 98.7854 10.05 98.7854 13.35C98.7854 17.325 97.9354 19.3 96.2104 19.3Z" fill="#4D4D4D"/>
<path d="M105.308 20.25C107.483 20.25 109.158 17.8 109.158 13.625C109.158 9.30002 107.483 7.15003 105.308 7.15003C103.133 7.15003 101.458 9.57502 101.458 13.775C101.458 18.075 103.133 20.25 105.308 20.25ZM105.308 19.3C103.833 19.3 102.633 17.625 102.633 13.7C102.633 9.87502 103.833 8.12502 105.308 8.12502C106.783 8.12502 107.983 9.75002 107.983 13.7C107.983 17.5 106.783 19.3 105.308 19.3Z" fill="#4D4D4D"/>
<path d="M113.787 19.3C112.587 19.3 111.812 18.275 111.812 16.5C111.812 14.3 112.812 13.35 114.887 13.35H116.237V16.825C115.787 18.175 114.962 19.3 113.787 19.3ZM116.587 20H117.662C117.512 19.525 117.387 18.55 117.387 17.675V10.8C117.387 8.30002 116.212 7.15003 114.137 7.15003C112.712 7.15003 111.662 7.77502 111.162 8.42502L111.487 9.55002C112.087 8.67502 113.062 8.17502 114.137 8.17502C115.512 8.17502 116.237 9.00003 116.237 10.925V12.5H114.862C112.137 12.5 110.662 13.9 110.662 16.6C110.662 18.9 111.837 20.25 113.537 20.25C114.787 20.25 115.687 19.5 116.287 18.3C116.362 19.2 116.487 19.675 116.587 20Z" fill="#4D4D4D"/>
<path d="M124.252 8.55002V7.32502C122.702 7.42502 121.677 8.70002 121.277 9.92502H121.202L121.152 7.40002H120.077V20H121.252V11.25C121.827 9.52502 122.877 8.60002 124.252 8.55002Z" fill="#4D4D4D"/>
<path d="M128.889 19.2C127.389 19.2 126.439 17.25 126.439 13.95C126.439 10.175 127.564 8.07502 129.114 8.07502C130.289 8.07502 130.889 8.70002 131.414 9.90002V16.825C130.864 18.1 129.964 19.2 128.889 19.2ZM131.614 20H132.589V2.12502H131.414V8.45003C130.939 7.67502 130.164 7.15003 129.239 7.15003C126.889 7.15003 125.264 9.62503 125.264 14.05C125.264 17.7 126.564 20.225 128.664 20.225C130.039 20.225 130.939 19.175 131.464 18.025L131.614 20Z" fill="#4D4D4D"/>
</svg>
